<svg width="34" height="34" viewBox="0 0 34 34" fill="none" xmlns="http://www.w3.org/2000/svg">
<path d="M26.4693 13.2287L24.373 14.0755C24.1031 14.1849 23.8194 14.2402 23.5304 14.2402C22.911 14.2402 22.3117 13.9788 21.8878 13.523C21.466 13.0704 21.2482 12.4552 21.2917 11.8357L21.45 9.58111L19.9955 7.85136C19.6725 7.46673 19.511 6.99605 19.4887 6.51367H5.70484C3.20797 6.51367 1.16797 8.55367 1.16797 11.0612V23.7049C1.16797 26.2124 3.20797 28.2418 5.70484 28.2418H9.15797L9.08359 30.3562C9.06234 31.2168 9.51922 32.003 10.2842 32.4068C10.6136 32.5768 10.9642 32.6618 11.3255 32.6618C11.793 32.6618 12.2605 32.5024 12.6536 32.2049L17.9236 28.2418H24.0011C26.498 28.2418 28.538 26.2124 28.538 23.7049V14.0649L26.4693 13.2287ZM15.381 20.7512H9.80397C9.27591 20.7512 8.84772 20.323 8.84772 19.7949C8.84772 19.2669 9.27591 18.8387 9.80397 18.8387H15.381C15.9091 18.8387 16.3373 19.2669 16.3373 19.7949C16.3373 20.323 15.9091 20.7512 15.381 20.7512ZM20.3248 15.921H9.80609C9.27803 15.921 8.84984 15.4929 8.84984 14.9648C8.84984 14.4367 9.27803 14.0085 9.80609 14.0085H20.3248C20.8529 14.0085 21.2811 14.4367 21.2811 14.9648C21.2811 15.4929 20.8529 15.921 20.3248 15.921Z" fill="#333333"/>
<path d="M27.0211 2.60758L28.5607 5.07152L31.3795 5.77383C31.847 5.8907 32.0308 6.45595 31.7216 6.8257L29.8537 9.05058L30.0567 11.948C30.0907 12.4283 29.6094 12.7789 29.162 12.5983L26.4686 11.5092L23.7752 12.5983C23.3289 12.7789 22.8465 12.4293 22.8805 11.948L23.0835 9.05058L21.2156 6.8257C20.9054 6.45702 21.0902 5.8907 21.5577 5.77383L24.3765 5.07152L25.9161 2.60758C26.17 2.19852 26.7661 2.19852 27.0211 2.60758Z" fill="#333333"/>
</svg>
