<svg width="34" height="34" viewBox="0 0 34 34" fill="none" xmlns="http://www.w3.org/2000/svg">
<g clip-path="url(#clip0_1139_8033)">
<path d="M33.9114 13.3752C33.6888 12.6867 33.0782 12.1978 32.3557 12.1327L22.5424 11.2416L18.6619 2.15901C18.3758 1.49337 17.7242 1.0625 17.0002 1.0625C16.2762 1.0625 15.6245 1.49337 15.3384 2.16057L11.458 11.2416L1.64307 12.1327C0.921925 12.1993 0.312839 12.6867 0.088972 13.3752C-0.134895 14.0637 0.0718512 14.8188 0.617382 15.2948L8.0351 21.8002L5.84779 31.4353C5.68773 32.1438 5.9627 32.8761 6.55052 33.301C6.86647 33.5293 7.23613 33.6455 7.60889 33.6455C7.9303 33.6455 8.24911 33.5588 8.53523 33.3876L17.0002 28.3284L25.462 33.3876C26.0812 33.7601 26.8618 33.7261 27.4483 33.301C28.0363 32.8748 28.3111 32.1422 28.151 31.4353L25.9637 21.8002L33.3814 15.2961C33.9269 14.8188 34.1352 14.065 33.9114 13.3752Z" fill="#333333"/>
</g>
<defs>
<clipPath id="clip0_1139_8033">
<rect width="34" height="34" fill="white"/>
</clipPath>
</defs>
</svg>
